<svg id="Layer_1" data-name="Layer 1" xmlns="http://www.w3.org/2000/svg" viewBox="0 0 265.6 25.8"><defs><style>.cls-1{fill:#fff;}</style></defs><title>logo-text-white</title><path class="cls-1" d="M70.6,5.9a5.2,5.2,0,0,1,4.9-4.7A53.8,53.8,0,0,1,85.1,1c3.9,0.3,6,2.4,6.3,6.3a63,63,0,0,1,0,11c-0.4,4.3-3.2,6.8-7.6,6.9a42.2,42.2,0,0,1-8.1-.4c-3.4-.6-5.2-2.8-5.4-6.2-0.2-1.9,0-3.8,0-5.6m14.4-.1a17.5,17.5,0,0,0-.3-2.3,3.1,3.1,0,0,0-3.5-2.4A2.6,2.6,0,0,0,78.1,11a23.1,23.1,0,0,0,0,4.2c0.2,1.5.8,2.9,2.6,3a3,3,0,0,0,3.4-2.7C84.4,14.7,84.5,13.8,84.6,12.9Z"/><path class="cls-1" d="M37.7,18.7l-2.8.2c-4,.1-4,0.1-3.8,4,0,0.7.1,1.4,0.2,2.2l-2.3.3c-3.7.2-5.1-1.1-5.2-4.8s-0.1-7.4-.1-11.1a15.9,15.9,0,0,1,.6-3.7c0.8-3.1,2.3-4.6,5.5-4.8A80.6,80.6,0,0,1,39,1c3.1,0.2,4.8,1.7,5.5,4.8A12.4,12.4,0,0,1,45,8.5c0.1,4.2.2,8.4,0.1,12.6a4.7,4.7,0,0,1-6.7,4.1,2.1,2.1,0,0,1-.7-1.5C37.7,22,37.7,20.4,37.7,18.7Zm-2.9-5.6h0.8c2,0.3,2.7-.6,2.2-2.5-0.1-.4-0.1-0.8-0.2-1.2a3,3,0,0,0-3.7-2.2C32,7.5,31,9,31.1,11.6s1.7,1.2,2.8,1.5h0.9Z"/><path class="cls-1" d="M206.9,10l3.8-7.2c1.3-2.5,6.5-2.9,8-.6a2.7,2.7,0,0,1,0,2.3c-1.3,2.4-2.7,4.7-4.2,7a1.8,1.8,0,0,0,.1,2.6c1.2,1.5,2.4,3.1,3.5,4.7s1.5,4.7-.3,5.9-5.8.6-7.1-1.5-2.2-3.9-3.2-5.9l-1.2-1.8v9.7h-4.7a3.2,3.2,0,0,1-3.4-3.4c-0.2-5.7-.3-11.4-0.4-17.2,0-1.7.8-3.2,2.4-3.5a21.5,21.5,0,0,1,5.5,0,2.7,2.7,0,0,1,.5,1.6c0.1,2.3,0,4.7,0,7Z"/><path class="cls-1" d="M158.8,25.1l-2.6.3c-3.7.2-5-.9-5.2-4.6q-0.3-7.8-.3-15.7A4.9,4.9,0,0,1,157.8.9a2,2,0,0,1,.7,1.5c0.1,2,.1,4,0.1,6.1s0.2,1.8,1.6,1.8c4.1,0,4.1.1,3.9-4.1,0-.3,0-0.7-0.1-1-0.3-3.7,0-4.1,2.5-4.3,4-.2,5.4.8,5.4,4.2q0.1,7.4.2,14.9c0,4.4-2.4,6.3-6.6,5.2a2.2,2.2,0,0,1-1.2-1.6,27.8,27.8,0,0,1-.1-4.4c0.1-1.4-.4-2-1.9-2-4-.2-4-0.2-4,3.8C158.6,22.3,158.7,23.6,158.8,25.1Z"/><path class="cls-1" d="M244,20.1a0.8,0.8,0,0,1,.8-0.7h8.6a12.8,12.8,0,0,0,2.5-.2c0.4-.1,1.1-0.1,1.1-0.8a1.2,1.2,0,0,0-1-1.1,29.8,29.8,0,0,0-4.9-.8c-8-.5-7.9-7.3-6-12.2a4.7,4.7,0,0,1,4.6-2.9c4.2-.1,8.3-0.1,12.5.1a3,3,0,0,1,3,2.9c0.4,2.4-.2,3.2-2.6,3.2s-5.4-.1-8.2,0h-0.5a1.2,1.2,0,0,0-.2,2.2l0.6,0.2c1.7,0.4,3.5.4,5.2,0.8,4.5,0.9,6.1,2.8,5.9,7.1s-2.6,7.1-6.6,7.4a67.8,67.8,0,0,1-10.5,0C245.2,25.2,243.6,23.1,244,20.1Z"/><path class="cls-1" d="M93.8,19.1h10.6a6.6,6.6,0,0,0,2.2-1,7.2,7.2,0,0,0-2-1.2c-1.8-.4-3.6-0.5-5.4-0.8-3.9-.7-5.5-2.6-5.6-6.6-0.1-6,1.8-8.2,7.8-8.5a87,87,0,0,1,9.6.2c1.6,0.1,3.1.6,3.6,2.6s-0.1,3.6-2.8,3.6-4.9-.2-7.3,0a8.8,8.8,0,0,0-2.8,1.2,10.9,10.9,0,0,0,2.7,1.5c1.6,0.4,3.3.4,5,.7,3.6,0.7,5.2,2.4,5.5,5.6s-1.3,7.1-4.5,8.3a11,11,0,0,1-3.5.7c-2.9,0-5.9,0-8.8-.2S93,22.8,93.8,19.1Z"/><path class="cls-1" d="M187.8,1.2l1.6-.2c5.1-.4,6.1.5,6.2,5.5s0.1,8.6-.2,13-1.9,5.2-5.4,5.6a55.5,55.5,0,0,1-10.2.1c-3.2-.3-5-2-5.2-5.3-0.4-5.1-.4-10.2-0.3-15.2,0.1-3,4.4-4.9,6.9-3.3a2.7,2.7,0,0,1,.7,2c0.1,3.8,0,7.7,0,11.5a6.7,6.7,0,0,0,.2,1.7,2.9,2.9,0,0,0,2.9,2.5,2.6,2.6,0,0,0,2.7-2.7c0.2-3.8.2-7.5,0.3-11.3C188.1,3.7,187.9,2.6,187.8,1.2Z"/><path class="cls-1" d="M147.9,17.8c0.9,4.6-.9,7.2-5.6,7.6a45.4,45.4,0,0,1-8.1-.2,7,7,0,0,1-6.7-6.4,41.2,41.2,0,0,1,.2-10.9c0.5-3.9,3.2-6.2,7.1-6.5a81.3,81.3,0,0,1,9.3,0,5.1,5.1,0,0,1,2.3.9c1.3,0.8,2.3,3.5,1.4,4.8s-1.9.8-2.9,0.8-2.9-.1-4.4-0.2-4.7,1.4-5,4.2,1,5.5,4.2,5.8S145,17.8,147.9,17.8Z"/><path class="cls-1" d="M68.3,17.3c0.9,4.9-1.1,7.6-5.8,7.9a61.6,61.6,0,0,1-7.1,0,7.7,7.7,0,0,1-7.6-6.3,21.8,21.8,0,0,1,.6-12.8c0.9-2.4,2.6-4.2,5-4.5a73.3,73.3,0,0,1,11-.4,3.8,3.8,0,0,1,3.7,2.7c0.9,2.8.2,3.9-2.7,3.9H60.3a4.1,4.1,0,0,0-4.3,4c-0.4,3.1.6,5.3,3.2,5.7a45.3,45.3,0,0,0,7.1.3Z"/><path class="cls-1" d="M235.4,19.2c1.8,0,3.5-.1,5.2.1a2,2,0,0,1,1.4,1.2c0.6,3.2-.6,4.7-3.8,4.8H223.7a3.4,3.4,0,0,1-2.7-5.4,3.5,3.5,0,0,1,2.4-.7c3.9-.1,3.6.8,3.7-3.7,0-1.8-.5-2.6-2.4-2.4h-1c-3.1-.1-3.2-0.3-3.1-3.3S221.8,7,223.5,7h8.4c2.2,0,4.5-.1,6.7,0a3.7,3.7,0,0,1,3.3,5.2,2.2,2.2,0,0,1-1.5.9c-1.5.3-3.5-.1-4.4,0.7s-0.4,2.9-.5,4.4v1.1Z"/><path class="cls-1" d="M0.8,8c-1.1-3.9.2-6.4,4-6.7a97.1,97.1,0,0,1,14,.1c2.7,0.2,4.1,3.3,3,5.7a2.1,2.1,0,0,1-1.1.8,3.8,3.8,0,0,1-1.2.1c-4.3.2-4.3,0.2-4.1,4.4s0.1,6.3.3,9.4-0.9,3.3-3,3.4h-1c-3.7.2-4.1-.1-4.1-3.8s0-7.8,0-11.7c0-1.5-.5-2.2-2.1-2S2.3,8,.8,8Z"/><path class="cls-1" d="M234.5,5.3a19.9,19.9,0,0,1-3.5,0A2.3,2.3,0,0,1,229.3,4,2.5,2.5,0,0,1,230.4,2,89.1,89.1,0,0,1,239.6.4c0.4,0,1.1,1,1.2,1.6s0.1,2.6-1.6,2.9-3.2.2-4.8,0.4h0Z"/></svg>